<?xml version="1.0" standalone="no"?>
<!DOCTYPE svg PUBLIC "-//W3C//DTD SVG 20010904//EN"
 "http://www.w3.org/TR/2001/REC-SVG-20010904/DTD/svg10.dtd">
<svg version="1.0" xmlns="http://www.w3.org/2000/svg"
 width="1280.000000pt" height="964.000000pt" viewBox="0 0 1280.000000 964.000000"
 preserveAspectRatio="xMidYMid meet">
<metadata>
Created by potrace 1.15, written by Peter Selinger 2001-2017
</metadata>
<g transform="translate(0.000000,964.000000) scale(0.100000,-0.100000)"
fill="#000000" stroke="none">
<path d="M5585 7529 c-1281 -643 -2467 -1239 -2635 -1323 l-305 -154 -8 -193
c-5 -107 -11 -197 -15 -201 -4 -3 -108 -55 -232 -114 -124 -59 -228 -110 -233
-114 -4 -4 -12 -530 -17 -1171 -5 -640 -12 -1527 -16 -1971 l-6 -807 78 -4
c44 -2 -5 -3 -109 -3 l-187 1 0 -142 0 -143 4500 0 4500 0 0 143 0 142 -104
-3 -103 -3 -7 573 c-3 315 -8 1298 -11 2183 -3 886 -8 1786 -11 2000 l-6 390
-124 73 c-109 64 -124 76 -125 100 -1 15 -4 110 -8 211 l-6 184 -1230 758
c-676 417 -1234 758 -1240 758 -5 0 -1058 -526 -2340 -1170z m3595 -91 c663
-387 1259 -736 1325 -774 l120 -69 6 -815 c3 -448 10 -1601 14 -2563 l8 -1747
-644 0 c-354 0 -1323 5 -2154 10 -830 5 -2450 14 -3600 21 -1149 6 -2093 14
-2096 18 -4 3 -3 470 2 1036 4 567 11 1440 15 1941 l6 911 207 98 c113 54 375
179 581 278 407 195 491 236 1165 560 3214 1547 3800 1825 3820 1813 11 -7
562 -330 1225 -718z"/>
<path d="M6160 7164 c-954 -465 -2221 -1082 -2815 -1371 -594 -289 -1081 -526
-1081 -527 -2 -1 -6 -250 -35 -2031 -23 -1436 -25 -1580 -19 -1586 3 -4 599
-12 1325 -18 726 -6 1817 -16 2425 -21 608 -5 1309 -12 1559 -15 l453 -7 -6
464 c-6 443 -14 1272 -36 3938 -11 1429 -20 2020 -29 2020 -3 0 -787 -381
-1741 -846z m1724 29 c4 -423 11 -1207 16 -1743 24 -2547 33 -3810 27 -3817
-4 -4 -605 -1 -1335 5 -730 7 -1939 17 -2687 22 -748 6 -1429 13 -1514 17
l-154 5 7 342 c6 321 12 688 39 2480 l12 739 2460 1198 c1353 660 2606 1271
2785 1358 179 88 328 160 331 160 4 1 9 -344 13 -766z"/>
<path d="M7130 7021 c-256 -120 -787 -369 -1180 -554 -1471 -689 -3152 -1478
-3352 -1572 l-208 -98 0 -333 c0 -376 -7 -348 82 -314 29 10 280 100 558 199
278 98 733 261 1013 360 1126 402 1542 550 1957 698 239 85 693 247 1008 359
314 112 577 204 582 204 7 0 10 219 10 635 0 349 -1 635 -2 635 -2 0 -212 -99
-468 -219z"/>
<path d="M7055 4875 c-358 -104 -819 -237 -2125 -614 -267 -77 -737 -212
-1045 -301 -308 -89 -759 -219 -1003 -289 -243 -71 -445 -130 -448 -133 -7 -8
-22 -741 -14 -749 3 -3 192 35 420 86 398 88 640 142 2065 455 352 78 906 199
1230 271 325 71 755 166 958 211 l367 81 0 549 c0 301 -3 548 -7 547 -5 0
-183 -52 -398 -114z"/>
<path d="M7385 3195 c-110 -18 -614 -99 -1120 -179 -506 -80 -1377 -218 -1935
-306 -558 -88 -1098 -174 -1200 -190 -444 -70 -694 -111 -698 -114 -2 -2 0
-133 4 -290 7 -283 7 -286 28 -281 12 2 154 6 316 10 162 3 455 10 650 15 195
5 531 14 745 20 215 6 559 15 765 20 206 5 551 14 765 20 1323 34 1889 50
1892 53 1 2 6 207 12 457 6 250 13 533 17 628 l6 172 -24 -1 c-12 -1 -113 -16
-223 -34z"/>
<path d="M7965 7579 c3 -222 10 -917 15 -1544 6 -627 14 -1669 20 -2315 5
-646 13 -1388 16 -1647 l6 -473 412 -1 c226 -1 801 -5 1279 -8 l867 -6 0 320
c0 331 -14 2341 -26 3742 l-6 802 -1272 752 c-699 414 -1281 759 -1294 767
l-23 15 6 -404z m1431 -488 l1121 -664 7 -1201 c4 -660 11 -1741 16 -2400 6
-660 8 -1201 6 -1203 -5 -6 -2484 11 -2489 17 -2 3 -9 619 -16 1370 -6 751
-16 1804 -21 2340 -5 536 -12 1334 -16 1773 l-7 797 139 -83 c76 -45 643 -381
1260 -746z"/>
<path d="M8100 6613 l0 -618 498 -177 c273 -97 783 -279 1132 -404 349 -125
643 -229 653 -231 16 -5 17 21 17 444 l0 450 -782 393 c-431 216 -945 475
-1144 576 -199 101 -364 184 -367 184 -4 0 -7 -278 -7 -617z"/>
<path d="M8120 4565 c0 -311 1 -565 3 -565 7 0 709 -133 1792 -339 286 -54
521 -98 522 -97 4 3 -18 980 -22 984 -2 2 -133 36 -293 77 -159 40 -442 112
-628 160 -187 47 -454 116 -594 151 -140 36 -368 94 -506 130 -139 35 -257 64
-263 64 -8 0 -11 -159 -11 -565z"/>
<path d="M8140 2896 c0 -183 3 -455 7 -604 l6 -271 1116 5 c614 3 1130 7 1146
8 l30 2 -4 460 c-2 252 -5 461 -8 464 -2 2 -110 16 -241 31 -130 15 -318 37
-417 48 -99 11 -495 57 -880 101 -385 43 -712 82 -727 84 l-28 6 0 -334z"/>
</g>
</svg>
